<?xml version="1.0" standalone="no"?>
<!DOCTYPE svg PUBLIC "-//W3C//DTD SVG 20010904//EN"
 "http://www.w3.org/TR/2001/REC-SVG-20010904/DTD/svg10.dtd">
<svg version="1.0" xmlns="http://www.w3.org/2000/svg"
 width="301.000000pt" height="167.000000pt" viewBox="0 0 301.000000 167.000000"
 preserveAspectRatio="xMidYMid meet">

<g transform="translate(0.000000,167.000000) scale(0.100000,-0.100000)"
fill="#000000" stroke="none">
<path d="M530 825 c0 -122 2 -137 20 -155 32 -32 40 -24 40 40 0 33 2 60 5 60
2 0 34 -16 70 -36 l65 -36 0 -58 c0 -43 5 -64 21 -84 11 -14 25 -26 30 -26 5
0 9 67 9 157 0 134 2 159 17 177 10 12 14 18 9 13 -5 -4 -20 0 -32 8 -22 14
-24 14 -39 -14 -8 -17 -15 -46 -15 -66 0 -19 -3 -35 -6 -35 -3 0 -35 16 -70
36 -58 33 -64 39 -64 69 0 31 -32 85 -51 85 -5 0 -9 -59 -9 -135z"/>
<path d="M1632 925 c-39 -17 -66 -72 -57 -116 10 -43 58 -79 107 -79 48 0 98
43 98 84 0 24 -3 26 -50 26 -38 0 -50 -4 -50 -15 0 -9 9 -15 25 -15 27 0 32
-9 13 -28 -17 -17 -49 -15 -76 4 -26 18 -30 65 -6 88 18 19 65 21 82 4 8 -8
15 -8 27 2 19 16 19 23 -3 36 -32 20 -76 24 -110 9z"/>
<path d="M1250 830 l0 -100 64 0 c36 0 76 4 89 9 33 13 43 46 23 77 -13 19
-14 29 -6 45 9 16 8 26 -5 45 -14 22 -22 24 -90 24 l-75 0 0 -100z m125 45 c0
-16 -8 -21 -37 -23 -35 -3 -38 -1 -38 23 0 24 3 26 38 23 29 -2 37 -7 37 -23z
m-1 -61 c24 -9 19 -41 -6 -48 -52 -13 -68 -8 -68 24 0 26 3 30 29 30 16 0 36
-3 45 -6z"/>
<path d="M1480 830 l0 -100 25 0 25 0 0 100 0 100 -25 0 -25 0 0 -100z"/>
<path d="M1830 830 l0 -100 48 0 c105 0 151 35 116 87 -11 17 -12 28 -4 42 24
45 -12 71 -99 71 l-61 0 0 -100z m117 59 c20 -20 3 -39 -37 -39 -29 0 -39 5
-43 19 -3 11 -2 22 1 25 10 10 68 6 79 -5z m11 -81 c21 -21 -5 -48 -47 -48
-33 0 -39 4 -43 25 -3 13 -3 27 0 30 10 10 78 5 90 -7z"/>
<path d="M2082 912 c-28 -22 -46 -81 -33 -113 30 -80 158 -92 196 -18 24 45
19 87 -14 120 -25 24 -38 29 -78 29 -30 0 -56 -7 -71 -18z m118 -32 c27 -27
25 -66 -6 -96 -43 -44 -104 -15 -104 50 0 60 67 89 110 46z"/>
<path d="M2296 918 c4 -7 18 -27 31 -44 13 -17 23 -34 23 -38 0 -4 -13 -27
-30 -51 -35 -51 -36 -55 -11 -55 10 0 29 16 42 35 13 19 26 35 29 35 3 0 16
-16 29 -35 16 -24 31 -35 48 -35 25 0 25 0 -11 49 -20 27 -36 53 -36 58 0 5
14 28 31 51 28 39 29 42 11 42 -11 0 -32 -14 -46 -32 l-25 -32 -20 25 c-11 13
-20 27 -21 32 0 4 -12 7 -26 7 -17 0 -23 -4 -18 -12z"/>
<path d="M896 876 c-32 -19 -62 -40 -67 -48 -11 -17 -12 -288 -1 -288 25 0 52
43 52 83 0 41 1 43 59 75 32 17 60 32 62 32 2 0 3 -20 2 -45 -2 -47 2 -49 40
-17 14 12 17 31 17 101 0 52 -4 81 -9 72 -7 -10 -12 -8 -25 10 -10 13 -16 17
-15 9 8 -39 -11 -66 -71 -99 l-61 -33 3 38 c3 35 8 42 56 71 50 29 52 32 32
43 -11 6 -18 15 -15 21 9 13 6 12 -59 -25z m68 -15 c-4 -3 -9 0 -11 7 -3 6
-10 9 -15 6 -7 -4 -8 -2 -4 5 6 9 11 9 22 0 8 -6 12 -15 8 -18z m70 -37 c3 -8
2 -12 -4 -9 -6 3 -10 10 -10 16 0 14 7 11 14 -7z"/>
</g>
</svg>
